<?xml version="1.0" encoding="utf-8"?>
<!-- Generator: Adobe Illustrator 25.2.2, SVG Export Plug-In . SVG Version: 6.00 Build 0)  -->
<svg version="1.1" id="Object" xmlns="http://www.w3.org/2000/svg" xmlns:xlink="http://www.w3.org/1999/xlink" x="0px" y="0px"
	 viewBox="0 0 656.5 562.1" style="enable-background:new 0 0 656.5 562.1;" xml:space="preserve">
<style type="text/css">
	.st0{fill:#FFFFFF;}
	.st1{fill:none;}
</style>
<g>
	<g>
		<path class="st0" d="M505.2,357.4c-14.1,0-25.2,4.7-33.4,14.1c-8.2,9.4-12.2,22.2-12.2,38.5c0,16.8,3.9,29.7,11.8,38.9
			c7.9,9.1,19.1,13.7,33.6,13.7c8.9,0,19.1-1.6,30.6-4.8v13.1c-8.9,3.3-19.8,5-32.9,5c-18.9,0-33.5-5.7-43.7-17.2
			c-10.3-11.5-15.4-27.7-15.4-48.8c0-13.2,2.5-24.8,7.4-34.7s12.1-17.6,21.4-23s20.3-8.1,32.9-8.1c13.4,0,25.2,2.5,35.2,7.4
			l-6.3,12.8C524.6,359.7,514.9,357.4,505.2,357.4z"/>
		<path class="st0" d="M637.2,425.9c0,15.7-4,27.9-11.8,36.7c-7.9,8.8-18.8,13.2-32.7,13.2c-8.6,0-16.2-2-22.9-6
			s-11.8-9.8-15.4-17.4c-3.6-7.6-5.4-16.4-5.4-26.5c0-15.7,3.9-27.9,11.8-36.6c7.8-8.7,18.7-13.1,32.6-13.1c13.4,0,24.1,4.5,32,13.4
			C633.2,398.6,637.2,410.7,637.2,425.9z M563.9,425.9c0,12.3,2.5,21.6,7.4,28c4.9,6.4,12.1,9.6,21.7,9.6c9.5,0,16.8-3.2,21.7-9.6
			c4.9-6.4,7.4-15.8,7.4-28.1c0-12.2-2.5-21.5-7.4-27.8c-4.9-6.3-12.2-9.5-21.9-9.5c-9.5,0-16.7,3.1-21.6,9.4
			C566.4,404.2,563.9,413.5,563.9,425.9z"/>
	</g>
	<g>
		<path class="st0" d="M505.2,357.4c-14.1,0-25.2,4.7-33.4,14.1c-8.2,9.4-12.2,22.2-12.2,38.5c0,16.8,3.9,29.7,11.8,38.9
			c7.9,9.1,19.1,13.7,33.6,13.7c8.9,0,19.1-1.6,30.6-4.8v13.1c-8.9,3.3-19.8,5-32.9,5c-18.9,0-33.5-5.7-43.7-17.2
			c-10.3-11.5-15.4-27.7-15.4-48.8c0-13.2,2.5-24.8,7.4-34.7s12.1-17.6,21.4-23s20.3-8.1,32.9-8.1c13.4,0,25.2,2.5,35.2,7.4
			l-6.3,12.8C524.6,359.7,514.9,357.4,505.2,357.4z"/>
		<path class="st0" d="M637.2,425.9c0,15.7-4,27.9-11.8,36.7c-7.9,8.8-18.8,13.2-32.7,13.2c-8.6,0-16.2-2-22.9-6
			s-11.8-9.8-15.4-17.4c-3.6-7.6-5.4-16.4-5.4-26.5c0-15.7,3.9-27.9,11.8-36.6c7.8-8.7,18.7-13.1,32.6-13.1c13.4,0,24.1,4.5,32,13.4
			C633.2,398.6,637.2,410.7,637.2,425.9z M563.9,425.9c0,12.3,2.5,21.6,7.4,28c4.9,6.4,12.1,9.6,21.7,9.6c9.5,0,16.8-3.2,21.7-9.6
			c4.9-6.4,7.4-15.8,7.4-28.1c0-12.2-2.5-21.5-7.4-27.8c-4.9-6.3-12.2-9.5-21.9-9.5c-9.5,0-16.7,3.1-21.6,9.4
			C566.4,404.2,563.9,413.5,563.9,425.9z"/>
	</g>
</g>
<g>
	<g>
		<path class="st0" d="M575.6,151.6c0,18.5-6.3,32.7-18.9,42.7c-12.6,10-30.7,14.9-54.2,14.9H481v71.9h-21.2V98.4h47.4
			C552.8,98.4,575.6,116.1,575.6,151.6z M481,191h19.1c18.8,0,32.4-3,40.9-9.1c8.4-6.1,12.6-15.8,12.6-29.2c0-12.1-4-21.1-11.9-27
			c-7.9-5.9-20.2-8.9-37-8.9H481V191L481,191z"/>
		<path class="st0" d="M603.6,281.1V98.4h21.2v182.7L603.6,281.1L603.6,281.1z"/>
	</g>
	<g>
		<path class="st0" d="M575.6,151.6c0,18.5-6.3,32.7-18.9,42.7c-12.6,10-30.7,14.9-54.2,14.9H481v71.9h-21.2V98.4h47.4
			C552.8,98.4,575.6,116.1,575.6,151.6z M481,191h19.1c18.8,0,32.4-3,40.9-9.1c8.4-6.1,12.6-15.8,12.6-29.2c0-12.1-4-21.1-11.9-27
			c-7.9-5.9-20.2-8.9-37-8.9H481V191L481,191z"/>
		<path class="st0" d="M603.6,281.1V98.4h21.2v182.7L603.6,281.1L603.6,281.1z"/>
	</g>
</g>
<g>
	<path class="st0" d="M405.2,45.1c-0.4-21.2-8.6-36.1-22.5-40.8c-9.1-3.1-21.4-4.6-36.7-4.6c-44.7,0-105.1,13.1-165.9,36
		C131.4,54.1,95.5,72.6,69.1,90c-1.7,0.2-3.2,1.2-4.1,2.7C3.1,134.8-3,169.9,0.8,179.8c2.8,7.4,28.8,49.9,55,49.9l0,0
		c2.5,0,4.9-0.4,7.2-1.1C80.4,251,183.1,383.5,205.1,417.1c10.7,16.4,11.1,32.4,11.4,46.5c0.4,16.3,0.7,31.7,19.2,38
		c19.8,6.7,27.6-5,32.7-12.7c4.7-7,5.6-7.3,8.8-6c5,2.1,7,18.7,8.4,30.8c2.5,21.4,5.4,45.6,23.6,47.9c1,0.1,2,0.2,2.9,0.2
		c4,0,7.5-1.2,10.2-3.5c7-6,7.3-17.5,7.7-28.7c0.3-8.5,0.6-19,4.6-19.8c4.8-0.9,6,0.7,9.1,7.7c2.7,6,6.7,15.1,18.5,14.3
		c3.1-0.2,6-2,8.6-5.4c25.1-33.1,49-278.2,17.8-433.7C399.5,84.8,405.5,63.5,405.2,45.1z M384.5,17.1c8.7,6.9,10.1,21.5,10.2,28.2
		c0.4,19.4-7.2,37.3-13.9,39.9c-4.7,1.8-12.2,2.3-22.6,3.1c-3.1,0.2-6.5,0.5-10.2,0.8c0.5-2.2,1.7-4.5,2.8-6.6L384.5,17.1z
		 M325.2,13.6c1-0.7,1.6-1.6,1.9-2.7c6.5-0.5,12.8-0.7,18.8-0.7c11.5,0,21.3,1,28.8,2.8l-33.3,64.5c-1.7,3.3-3.9,7.6-4.2,12.5
		c-13.4,1.4-29.8,3.8-49.9,8.4c13.1-24.2,24.2-49.6,33-75.6C321.5,19.3,322.8,15.4,325.2,13.6z M313.1,12.3
		c-1.2,2.4-2.1,4.9-2.8,7.1c-9.4,27.7-21.4,54.7-35.7,80.3c-0.4,0.6-0.6,1.3-0.6,2c-17.8,4.7-38.1,11-61.5,19.8
		c-0.8,0.3-1.7,0.6-2.5,0.9C225.1,91,237.8,58.3,247.9,25C270.9,19,293,14.7,313.1,12.3z M154.5,57.3c9.2-3.9,18.9-7.8,29.3-11.7
		c17.5-6.6,35-12.4,52-17.2c-10.2,32.4-22.9,64.3-37.9,94.7c-0.7,1.4-0.7,2.9-0.2,4.2c-30.9,12.6-53.8,25.4-71.4,37.3
		c8.1-35.6,17.4-71.2,27.9-106.1C154.4,58.1,154.5,57.7,154.5,57.3z M10.7,176.2c-2-5.9,3.8-31.8,47.1-65.1
		c-11.4,30.1-20.7,61-27.8,92.3C20.3,193.2,12.5,181,10.7,176.2z M62,217.6c-2,1.1-4,1.6-6.2,1.6c-5.4,0-11.2-3-16.9-7.5
		c8.3-38.1,20-75.7,34.6-111.8c17.7-11.8,40.2-24.4,68.6-37.1c-10.8,36.4-20.4,73.5-28.5,110.5c0,0.1,0,0.3-0.1,0.4
		C100,183.9,90.1,193.2,81.8,201C74.1,208.4,68,214.1,62,217.6z M389.6,362.4c-6.4,97-20.5,154.4-28.3,159c-3.6,0.1-5-1.6-7.9-8.1
		c-2.9-6.5-7.3-16.2-20.6-13.8c-12.4,2.2-12.9,16.9-13.3,29.8c-0.2,8-0.6,18-4,21c-0.4,0.3-1.6,1.3-5,0.9
		c-10.1-1.3-12.4-21.2-14.5-38.7c-2.2-18.7-4.1-34.9-14.9-39.3c-11.8-4.9-17.7,4-21.6,9.9c-4.9,7.4-8.5,12.6-20.6,8.6
		c-11.1-3.8-11.7-11.4-12.1-28.2c-0.3-14.8-0.7-33.1-13.1-52C191.6,377.7,92.5,249.8,72.1,223.6c5.3-3.8,10.6-8.8,16.8-14.7
		c20.7-19.5,52-49,127.1-77.4c73.5-27.7,116.8-30.8,142.8-32.7c8-0.6,14.4-1,19.7-2.1C392.2,165.8,396.2,262.1,389.6,362.4z"/>
	<path class="st0" d="M178.4,213.9c-6.5-5.2-16.9-6.3-23.5-0.7c-2,1.7-3.6,3.7-4.7,5.9c-3.2,4-4.9,9.1-4.4,14.4
		c0.8,9,7.8,16.5,16.7,18c5.3,0.9,10.9-0.4,15.3-3.6c3.9-2.8,7.6-7.9,8-12.9c0-0.3,0-0.7,0-1C187.3,226.7,184.4,218.7,178.4,213.9z"
		/>
	<path class="st0" d="M224.8,159.2c-11.4,4.3-4.7,21.9,6.6,17.6S236.2,154.9,224.8,159.2z"/>
	<path class="st0" d="M259.5,406.3c-11.4,4.3-4.7,21.9,6.6,17.6C277.4,419.6,270.9,402,259.5,406.3z"/>
	<path class="st0" d="M322,188.3c-9.6,3.6-14.6,14.7-11,24.3c3.6,9.6,14.7,14.6,24.3,11c9.6-3.6,14.6-14.7,11-24.3
		C342.7,189.7,331.7,184.7,322,188.3z"/>
	<path class="st0" d="M258,253.2c-2.4-6.4-9.9-9.8-16.3-7.4c-6.4,2.4-9.8,9.8-7.4,16.3s9.9,9.8,16.3,7.4
		C257,267.1,260.4,259.7,258,253.2z"/>
	<path class="st0" d="M234.4,328.5c-8.4,3.2-3.5,16.1,4.9,13S242.8,325.4,234.4,328.5z"/>
	<path class="st0" d="M360.5,342.5c-8.4,3.2-3.5,16.1,4.9,13C373.8,352.4,368.9,339.4,360.5,342.5z"/>
	<path class="st0" d="M321.8,302.2c3.8,3.1,9,3.9,13.5,2.2c4.5-1.7,7.9-5.8,8.7-10.6c0.9-5.2-1.3-9.5-4.9-13
		c-0.1-0.1-0.3-0.3-0.4-0.4c-6.9-6.8-21.1-1.5-21.8,8.2c0,0.2,0,0.4,0,0.6C316.5,294.2,317.7,298.8,321.8,302.2z"/>
	<path class="st0" d="M327,396.6c4.2-5.2,5.1-14,0.5-19.3c-0.1-0.2-0.3-0.3-0.4-0.5c-2.7-3.1-5.6-5.4-9.8-6.1
		c-5.3-0.9-11.2,1.2-14.5,5.5c-0.1,0.2-0.2,0.3-0.4,0.5c-7.2,9.4-2.3,23.6,9.7,25.6C317.6,403.2,323.4,401,327,396.6z"/>
	<path class="st0" d="M329.4,436.5c-6.1,2.3-9.3,9.3-7,15.5c2.3,6.1,9.3,9.3,15.5,7c6.1-2.3,9.3-9.3,7-15.5
		C342.6,437.4,335.6,434.2,329.4,436.5z"/>
	<path class="st0" d="M308.9,164.7c3.7-0.3,7-2.7,8.5-6.1c0.4-0.9,0.7-1.9,0.8-2.9c1.2-3.7,0.1-7.8-3-10.4
		c-3.7-3.1-9.7-3.4-13.5-0.2c-2.3,2-3.6,4.1-4.2,7c-0.6,3.1,0.5,5.7,2,8.3C301.3,163.5,305.7,165,308.9,164.7z"/>
</g>
<g>
	<path class="st0" d="M653.2,509.9H427.3c-1.8,0-3.3-2.4-3.3-5.3s1.5-5.3,3.3-5.3h225.9c1.8,0,3.3,2.4,3.3,5.3
		C656.4,507.5,654.9,509.9,653.2,509.9z"/>
</g>
<g>
	<path class="st0" d="M653.2,77.1H427.3c-1.8,0-3.3-2.4-3.3-5.3c0-2.9,1.5-5.3,3.3-5.3h225.9c1.8,0,3.3,2.4,3.3,5.3
		C656.4,74.8,654.9,77.1,653.2,77.1z"/>
</g>
<line class="st1" x1="0" y1="562.1" x2="0" y2="562.1"/>
<polyline class="st1" points="0,562.1 0,562.1 0,562.1 "/>
<polyline class="st1" points="0,562.1 0,562.1 0,562.1 "/>
</svg>
